<svg xmlns="http://www.w3.org/2000/svg" width="118.863" height="106.445" viewBox="0 0 118.863 106.445">
  <g id="Logo-hotsale" transform="translate(-898.004 -657.973)">
    <path id="Trazado_1" data-name="Trazado 1" d="M971.812,690.386c-15.168,2.38-34.68,5.452-38.909,6.17-7.128,1.209-9.5,5.144-9.5,5.144s-19.325,22.1-21.943,25.252c-1.661,2-.805,8.593.043,13.153.649,4.358,1.805,9.534,3.725,10.757,3.454,2.2,28.6,17.358,28.6,17.358s3.461,3.023,10.618,2,57.69-8.909,57.69-8.909,18.973-.774,15.805-22.633l-3.177-19.385-.429-2.891-.338-1.52c-.905-4.651-1.262-4.226-2.948-3.837-6.423,1.48,2.652-6.691,3.232-6.526.276.078.515-1.145.332-.923a29.653,29.653,0,0,1-6.3,5.851c-.76.48-5.131,2.472-6.5.249-1.565-3.54,2.854-5.332,5.022-6.009,3.951-1.235,6.5-2.223,8.315-4.693s2.3-9.3-2.223-16.465a27.319,27.319,0,0,1-4.049-14.229.331.331,0,0,0-.5-.285c-1.769,1.011-1.872,4.006-1.872,7.1,0,3.376,1.031,7.986,0,13.09-.755,3.733-10.329,10.72-12.926,5.845-2.714-5.1-4.4-3.3-2.714-5.1.219-.234.625-6.564.31-6.507-5.12.94-3.324,4.546-4.1,7.489-.823,3.128-2.634,7.491-5.1,9.961s-5.31.905-5.31-3.705c0-3.3-1.776-7.534-3.242-7.785-6.05-1.035,1.9,1.394,1.588,1.446-1.591.266,0,0-1.844.33Zm-47.629,51.951a6.655,6.655,0,1,1,4.955-6.785,6.656,6.656,0,0,1-4.955,6.785" transform="translate(-1.507 -6.014)" fill="#a0161d" style="mix-blend-mode: multiply;isolation: isolate"/>
    <g id="Grupo_1" data-name="Grupo 1" transform="translate(898.004 657.973)">
      <path id="Trazado_2" data-name="Trazado 2" d="M970.665,681.733c-15.168,2.38-34.679,5.452-38.91,6.169-7.128,1.21-9.5,5.144-9.5,5.144s-19.325,22.1-21.943,25.252c-1.661,2-.805,8.594.043,13.153.649,4.358,1.805,9.534,3.725,10.757,3.454,2.2,28.6,17.357,28.6,17.357s3.46,3.024,10.619,2,57.69-8.909,57.69-8.909,18.972-.774,15.806-22.632l-3.177-19.385-.429-2.891-.338-1.519c-.906-4.651-.1-5.4.741-6.915a7.065,7.065,0,0,0,.455-4.206.33.33,0,0,0-.58-.165,29.648,29.648,0,0,1-6.3,5.852c-.76.48-5.13,2.471-6.5.249-1.565-3.54,2.854-5.333,5.022-6.01,3.952-1.235,6.5-2.223,8.315-4.692s2.3-9.3-2.223-16.466a27.316,27.316,0,0,1-4.049-14.229.331.331,0,0,0-.5-.285c-1.769,1.011-1.873,4.006-1.873,7.1,0,3.375,1.032,7.985,0,13.09-.754,3.732-10.33,10.719-12.925,5.845-2.715-5.1,1.334-10.2,3.022-12a.33.33,0,0,0-.307-.547,12.489,12.489,0,0,0-9.219,8.429c-.824,3.128-2.635,7.491-5.1,9.961s-5.31.905-5.31-3.705a10.015,10.015,0,0,1,2.808-6.75.329.329,0,0,0-.289-.553c-1.591.266-4.174.964-6.018,1.293Zm-47.629,51.951a6.655,6.655,0,1,1,4.955-6.786,6.657,6.657,0,0,1-4.955,6.786" transform="translate(-898.821 -658.782)" fill="#e02631"/>
      <path id="Trazado_3" data-name="Trazado 3" d="M939.586,761.508c-5.048,0-7.673-2.011-8.039-2.313-1.091-.658-25.214-15.2-28.574-17.343-1.693-1.079-3.028-4.824-3.967-11.131-1.359-7.305-1.335-11.879.075-13.575,2.547-3.063,21.085-24.271,21.924-25.23.3-.471,2.878-4.17,9.843-5.352,4.215-.714,23.489-3.75,38.916-6.171h0l1.348-.2c.88-.157,1.967-.409,3.018-.652,1.115-.259,2.168-.5,2.991-.64a.85.85,0,0,1,.9.444.871.871,0,0,1-.134,1.007,9.456,9.456,0,0,0-2.662,6.382c0,2.143.677,3.754,1.768,4.206a2.47,2.47,0,0,0,2.626-.881c2.411-2.411,4.182-6.743,4.965-9.718a12.969,12.969,0,0,1,9.641-8.82.873.873,0,0,1,.925.44.85.85,0,0,1-.13,1c-1.726,1.84-5.467,6.632-2.94,11.378a2.742,2.742,0,0,0,3.129,1.331c3.6-.524,8.312-4.638,8.8-7.03a32.679,32.679,0,0,0,.193-9.515c-.1-1.241-.2-2.413-.2-3.468,0-3.471.161-6.438,2.144-7.57a.877.877,0,0,1,.876,0,.854.854,0,0,1,.426.751,26.782,26.782,0,0,0,3.965,13.939c4.7,7.435,4.118,14.457,2.2,17.07-1.95,2.659-4.667,3.662-8.588,4.887-2.521.787-4.213,1.889-4.763,3.1a2.532,2.532,0,0,0,.057,2.142,1.567,1.567,0,0,0,1.022.672c1.64.378,4.151-.765,4.717-1.123a29.2,29.2,0,0,0,6.171-5.738.851.851,0,0,1,.878-.288.873.873,0,0,1,.644.7,7.753,7.753,0,0,1-.515,4.564c-.08.144-.159.281-.237.415-.713,1.228-1.228,2.115-.445,6.136l.335,1.506.437,2.928,3.175,19.378c1.042,7.186-.157,12.9-3.56,17-4.765,5.737-12.1,6.222-12.721,6.254-1.451.226-50.658,7.9-57.668,8.906A21.115,21.115,0,0,1,939.586,761.508Zm30.343-80.054c-15.423,2.42-34.69,5.455-38.9,6.168-6.806,1.155-9.109,4.855-9.131,4.892l-.056.077c-.193.221-19.351,22.134-21.935,25.242-1.146,1.378-1.088,6.012.158,12.712,1.172,7.867,2.687,9.893,3.485,10.4,3.409,2.171,28.336,17.2,28.588,17.35l.076.055c.032.028,3.392,2.845,10.189,1.875,7.072-1.01,57.178-8.83,57.683-8.909l.061-.006c.073,0,7.417-.375,11.979-5.877,3.195-3.853,4.311-9.284,3.317-16.141l-3.175-19.376-.431-2.9-.331-1.482c-.863-4.43-.2-5.572.568-6.895.075-.128.151-.259.228-.4a6.254,6.254,0,0,0,.46-3.411,29.522,29.522,0,0,1-6.127,5.605c-.484.306-3.393,1.757-5.532,1.261a2.617,2.617,0,0,1-1.713-1.184l-.034-.065a3.609,3.609,0,0,1-.068-3.055c.87-1.917,3.428-3.061,5.421-3.683,3.717-1.162,6.285-2.1,8.042-4.5,1.686-2.3,2.138-8.929-2.245-15.861a27.945,27.945,0,0,1-4.131-14.119c-1.195,1.037-1.3,3.627-1.3,6.423,0,1.01.1,2.16.2,3.378a33.548,33.548,0,0,1-.21,9.818c-.616,3.051-5.87,7.322-9.693,7.88a3.767,3.767,0,0,1-4.231-1.889c-2.648-4.972.672-9.853,2.668-12.135a12.068,12.068,0,0,0-8.179,7.9c-.858,3.254-2.685,7.644-5.244,10.2a3.472,3.472,0,0,1-3.8,1.113c-1.522-.631-2.43-2.574-2.43-5.2a10.383,10.383,0,0,1,2.55-6.664c-.686.136-1.49.322-2.331.517-1.063.246-2.164.5-3.087.666Zm-49.405,52.174a7.187,7.187,0,1,1,1.83-.234h0A7.3,7.3,0,0,1,920.523,733.629Zm.008-13.306a6.213,6.213,0,0,0-1.56.2,6.118,6.118,0,0,0,3.113,11.833h0a6.117,6.117,0,0,0-1.553-12.033Z" transform="translate(-898.004 -657.973)" fill="#fff"/>
    </g>
    <path id="Trazado_4" data-name="Trazado 4" d="M1181.957,669.148h.389l.575,1.692.572-1.692h.386v2h-.259v-1.181c0-.041,0-.108,0-.2s0-.2,0-.3l-.571,1.688h-.269l-.577-1.688v.061c0,.05,0,.124,0,.224s0,.174,0,.222v1.181h-.259Z" transform="translate(-170.793 -6.722)" fill="#fff"/>
    <path id="Trazado_5" data-name="Trazado 5" d="M1188.771,670.065a.5.5,0,0,0,.294-.076.315.315,0,0,0,.108-.275.3.3,0,0,0-.151-.291.474.474,0,0,0-.216-.041h-.643v.684Zm-.881-.917h.91a.882.882,0,0,1,.37.067.474.474,0,0,1,.277.473.533.533,0,0,1-.074.295.547.547,0,0,1-.207.184.408.408,0,0,1,.175.125.447.447,0,0,1,.067.252l.009.268a.827.827,0,0,0,.02.171.165.165,0,0,0,.087.122v.045h-.332a.29.29,0,0,1-.023-.067,1.371,1.371,0,0,1-.013-.158l-.016-.334a.281.281,0,0,0-.142-.263.569.569,0,0,0-.237-.037h-.6v.858h-.272Z" transform="translate(-174.362 -6.722)" fill="#fff"/>
    <path id="Trazado_6" data-name="Trazado 6" d="M1181.661,663.248a3.1,3.1,0,1,0,3.1,3.1,3.1,3.1,0,0,0-3.1-3.1m0,6.619a3.519,3.519,0,1,1,3.519-3.519,3.523,3.523,0,0,1-3.519,3.519" transform="translate(-168.498 -2.921)" fill="#fff"/>
    <g id="Grupo_4" data-name="Grupo 4" transform="translate(936.547 694.944)">
      <g id="Grupo_2" data-name="Grupo 2" transform="translate(0.828 0.764)">
        <path id="Trazado_7" data-name="Trazado 7" d="M999.318,769.316l4.235-.661,1.08,6.922,6.293-.982-1.08-6.922,4.235-.661,2.7,17.306-4.235.661-1.057-6.777-6.293.982,1.057,6.777-4.235.661Z" transform="translate(-998.313 -761.293)" fill="#9b1c22"/>
        <path id="Trazado_8" data-name="Trazado 8" d="M1054.433,761.426a8.859,8.859,0,0,1,10.43,7.422,9.162,9.162,0,1,1-18.1,2.824A8.859,8.859,0,0,1,1054.433,761.426Zm2.186,14.014a4.941,4.941,0,0,0,3.863-5.908,4.736,4.736,0,1,0-9.343,1.457A4.941,4.941,0,0,0,1056.619,775.44Z" transform="translate(-1026.779 -757.858)" fill="#9b1c22"/>
        <path id="Trazado_9" data-name="Trazado 9" d="M1097.2,757.771l-5.252.819-.566-3.631,14.74-2.3.567,3.63-5.252.819,2.133,13.675-4.236.661Z" transform="translate(-1053.686 -752.661)" fill="#9b1c22"/>
        <path id="Trazado_10" data-name="Trazado 10" d="M999.779,836.931a7.257,7.257,0,0,0,4.418,1.145c.872-.136,1.763-.622,1.6-1.663-.321-2.057-8.1-.769-8.934-6.094-.5-3.195,1.86-5.72,5.3-6.256a7.943,7.943,0,0,1,5.873,1.092l-1.251,3.74a6.682,6.682,0,0,0-4.062-.928c-.871.136-1.779.674-1.628,1.642.34,2.178,8.073.575,8.926,6.045.449,2.88-1.365,5.717-5.261,6.325a9.043,9.043,0,0,1-6.7-1.484Z" transform="translate(-996.796 -795.535)" fill="#9b1c22"/>
        <path id="Trazado_11" data-name="Trazado 11" d="M1047.323,831.423l-5.4.842-.474,3.793-4.357.679,3.182-18.223,4.454-.7,8.581,16.388-4.357.68Zm-4.229-9.307s-.093,1.948-.237,3.086l-.468,3.519,3.413-.532-1.493-3.214c-.484-1.04-1.166-2.867-1.166-2.867Z" transform="translate(-1021.035 -791.853)" fill="#9b1c22"/>
        <path id="Trazado_12" data-name="Trazado 12" d="M1077.528,813.5l4.235-.661,2.133,13.675,7.068-1.1.567,3.63-11.3,1.763Z" transform="translate(-1045.355 -788.86)" fill="#9b1c22"/>
        <path id="Trazado_13" data-name="Trazado 13" d="M1113.379,806.356l10.843-1.692.566,3.631-6.607,1.031.49,3.147,5.277-.823.566,3.63-5.277.823.51,3.268,6.947-1.083.566,3.63-11.182,1.744Z" transform="translate(-1066.919 -783.94)" fill="#9b1c22"/>
      </g>
      <g id="Grupo_3" data-name="Grupo 3">
        <path id="Trazado_14" data-name="Trazado 14" d="M997.24,767.4l4.236-.661,1.079,6.922,6.293-.982-1.08-6.922L1012,765.1l2.7,17.306-4.235.661-1.057-6.778-6.293.982,1.057,6.777-4.235.661Z" transform="translate(-996.235 -759.377)" fill="#fff"/>
        <path id="Trazado_15" data-name="Trazado 15" d="M1052.356,759.509a8.859,8.859,0,0,1,10.43,7.422,9.162,9.162,0,1,1-18.1,2.824A8.86,8.86,0,0,1,1052.356,759.509Zm2.186,14.014a4.941,4.941,0,0,0,3.863-5.908,4.736,4.736,0,1,0-9.342,1.457A4.94,4.94,0,0,0,1054.542,773.523Z" transform="translate(-1024.702 -755.942)" fill="#fff"/>
        <path id="Trazado_16" data-name="Trazado 16" d="M1095.12,755.855l-5.252.819-.566-3.63,14.74-2.3.566,3.63-5.252.819,2.133,13.675-4.236.661Z" transform="translate(-1051.609 -750.745)" fill="#fff"/>
        <path id="Trazado_17" data-name="Trazado 17" d="M997.7,835.015a7.261,7.261,0,0,0,4.418,1.145c.871-.136,1.763-.622,1.6-1.663-.321-2.058-8.1-.769-8.934-6.094-.5-3.195,1.86-5.72,5.3-6.256a7.945,7.945,0,0,1,5.873,1.092l-1.251,3.741a6.685,6.685,0,0,0-4.062-.929c-.871.136-1.779.674-1.628,1.643.34,2.178,8.073.575,8.926,6.045.449,2.88-1.365,5.717-5.261,6.325a9.042,9.042,0,0,1-6.7-1.483Z" transform="translate(-994.719 -793.619)" fill="#fff"/>
        <path id="Trazado_18" data-name="Trazado 18" d="M1045.246,829.507l-5.4.842-.474,3.793-4.357.68L1038.2,816.6l4.453-.695,8.581,16.388-4.357.679Zm-4.229-9.307s-.093,1.948-.237,3.086l-.468,3.519,3.413-.532-1.493-3.213c-.484-1.04-1.166-2.867-1.166-2.867Z" transform="translate(-1018.958 -789.937)" fill="#fff"/>
        <path id="Trazado_19" data-name="Trazado 19" d="M1075.451,811.588l4.235-.661,2.133,13.675,7.068-1.1.566,3.63-11.3,1.763Z" transform="translate(-1043.278 -786.943)" fill="#fff"/>
        <path id="Trazado_20" data-name="Trazado 20" d="M1111.3,804.44l10.843-1.692.566,3.63-6.608,1.031.491,3.147,5.277-.823.566,3.63-5.277.823.51,3.268,6.947-1.084.566,3.631L1114,821.745Z" transform="translate(-1064.842 -782.024)" fill="#fff"/>
      </g>
    </g>
    <g id="Grupo_5" data-name="Grupo 5" transform="translate(966.378 736.555)">
      <path id="Trazado_21" data-name="Trazado 21" d="M1069.583,873.671a.493.493,0,0,1,.42-.592.527.527,0,1,1-.42.592Z" transform="translate(-1069.576 -865.934)" fill="#fff"/>
      <path id="Trazado_22" data-name="Trazado 22" d="M1076.4,867.791a2.717,2.717,0,0,1-1.115.4,1.92,1.92,0,0,1-2.288-1.752,2.053,2.053,0,0,1,1.839-2.436,2.465,2.465,0,0,1,1.038.059l-.083.586a1.711,1.711,0,0,0-.871-.067,1.524,1.524,0,0,0,.413,3.011,2.091,2.091,0,0,0,.864-.328Z" transform="translate(-1071.616 -860.462)" fill="#fff"/>
      <path id="Trazado_23" data-name="Trazado 23" d="M1086.053,864.492a1.975,1.975,0,0,1-1.682,2.413,1.921,1.921,0,0,1-2.216-1.778,1.973,1.973,0,0,1,1.674-2.412A1.914,1.914,0,0,1,1086.053,864.492Zm-3.167.5c.128.876.727,1.463,1.438,1.36a1.388,1.388,0,0,0,.988-1.73c-.1-.677-.562-1.487-1.422-1.362S1082.776,864.235,1082.887,865Z" transform="translate(-1077.124 -859.69)" fill="#fff"/>
      <path id="Trazado_24" data-name="Trazado 24" d="M1093.678,861.9c-.061-.413-.118-.75-.191-1.078l.636-.093.127.64.025,0a1.392,1.392,0,0,1,1.149-.918,1.194,1.194,0,0,1,1.249.636l.016,0a1.671,1.671,0,0,1,.371-.585,1.38,1.38,0,0,1,.843-.409c.529-.077,1.365.156,1.566,1.544l.342,2.355-.71.1-.329-2.263c-.112-.769-.46-1.191-1.047-1.105a.951.951,0,0,0-.763.786,1.207,1.207,0,0,0-.006.372l.36,2.47-.71.1-.349-2.4c-.093-.636-.441-1.058-.995-.978a1,1,0,0,0-.8.858,1.037,1.037,0,0,0-.006.364l.351,2.412-.71.1Z" transform="translate(-1083.958 -858.117)" fill="#fff"/>
      <path id="Trazado_25" data-name="Trazado 25" d="M1111.724,867.541a.493.493,0,0,1,.42-.592.527.527,0,1,1-.42.592Z" transform="translate(-1094.923 -862.247)" fill="#fff"/>
      <path id="Trazado_26" data-name="Trazado 26" d="M1115.267,858.762c-.06-.414-.118-.75-.19-1.078l.636-.092.127.64.025,0a1.393,1.393,0,0,1,1.149-.918,1.194,1.194,0,0,1,1.248.637l.017,0a1.653,1.653,0,0,1,.371-.586,1.374,1.374,0,0,1,.843-.409c.529-.077,1.364.156,1.566,1.544l.342,2.354-.71.1-.329-2.264c-.112-.769-.46-1.19-1.047-1.105a.952.952,0,0,0-.763.786,1.22,1.22,0,0,0-.005.372l.36,2.47-.711.1-.349-2.4c-.093-.636-.44-1.058-.994-.978a1,1,0,0,0-.8.858,1.022,1.022,0,0,0-.006.364l.351,2.412-.71.1Z" transform="translate(-1096.943 -856.228)" fill="#fff"/>
      <path id="Trazado_27" data-name="Trazado 27" d="M1132.083,855.559l.7.776c.181.2.335.39.5.595l.024,0c.1-.26.2-.485.3-.719l.438-.933.785-.114-1.082,2.132,1.7,1.861-.826.12-.718-.814c-.191-.209-.356-.413-.531-.632l-.017,0c-.1.259-.207.493-.32.755l-.447.984-.8.117,1.124-2.248-1.64-1.761Z" transform="translate(-1106.685 -855.16)" fill="#fff"/>
    </g>
  </g>
</svg>
